<mxfile host="app.diagrams.net" agent="Mozilla/5.0 (Windows NT 10.0; Win64; x64) AppleWebKit/537.36 (KHTML, like Gecko) Chrome/128.0.0.0 Safari/537.36" version="24.7.7" pages="3">
  <diagram name="Step_1_Objects" id="5AucKZSdxHApyPtmPdB9">
    <mxGraphModel dx="1185" dy="632" grid="1" gridSize="10" guides="1" tooltips="1" connect="1" arrows="1" fold="1" page="1" pageScale="1" pageWidth="850" pageHeight="1100" math="0" shadow="0">
      <root>
        <mxCell id="0" />
        <mxCell id="1" parent="0" />
        <mxCell id="PYGcuWdw61UWCAQ2nyrZ-17" style="edgeStyle=orthogonalEdgeStyle;rounded=0;orthogonalLoop=1;jettySize=auto;html=1;exitX=0.5;exitY=0;exitDx=0;exitDy=0;entryX=0.5;entryY=1;entryDx=0;entryDy=0;endArrow=block;endFill=0;" edge="1" parent="1" source="PYGcuWdw61UWCAQ2nyrZ-2" target="PYGcuWdw61UWCAQ2nyrZ-3">
          <mxGeometry relative="1" as="geometry" />
        </mxCell>
        <mxCell id="PYGcuWdw61UWCAQ2nyrZ-2" value="Animal" style="rounded=0;whiteSpace=wrap;html=1;" vertex="1" parent="1">
          <mxGeometry x="170" y="150" width="120" height="60" as="geometry" />
        </mxCell>
        <mxCell id="PYGcuWdw61UWCAQ2nyrZ-19" style="edgeStyle=orthogonalEdgeStyle;rounded=0;orthogonalLoop=1;jettySize=auto;html=1;exitX=1;exitY=0.5;exitDx=0;exitDy=0;entryX=0;entryY=0.5;entryDx=0;entryDy=0;" edge="1" parent="1" source="PYGcuWdw61UWCAQ2nyrZ-3" target="PYGcuWdw61UWCAQ2nyrZ-18">
          <mxGeometry relative="1" as="geometry" />
        </mxCell>
        <mxCell id="PYGcuWdw61UWCAQ2nyrZ-3" value="Entity" style="rounded=0;whiteSpace=wrap;html=1;" vertex="1" parent="1">
          <mxGeometry x="365" y="30" width="120" height="60" as="geometry" />
        </mxCell>
        <mxCell id="PYGcuWdw61UWCAQ2nyrZ-15" style="edgeStyle=orthogonalEdgeStyle;rounded=0;orthogonalLoop=1;jettySize=auto;html=1;exitX=0.5;exitY=0;exitDx=0;exitDy=0;entryX=0.5;entryY=1;entryDx=0;entryDy=0;endArrow=block;endFill=0;" edge="1" parent="1" source="PYGcuWdw61UWCAQ2nyrZ-4" target="PYGcuWdw61UWCAQ2nyrZ-3">
          <mxGeometry relative="1" as="geometry" />
        </mxCell>
        <mxCell id="PYGcuWdw61UWCAQ2nyrZ-4" value="Robot" style="rounded=0;whiteSpace=wrap;html=1;" vertex="1" parent="1">
          <mxGeometry x="500" y="150" width="120" height="60" as="geometry" />
        </mxCell>
        <mxCell id="PYGcuWdw61UWCAQ2nyrZ-10" style="edgeStyle=orthogonalEdgeStyle;rounded=0;orthogonalLoop=1;jettySize=auto;html=1;exitX=0.5;exitY=0;exitDx=0;exitDy=0;entryX=0.5;entryY=1;entryDx=0;entryDy=0;endArrow=block;endFill=0;" edge="1" parent="1" source="PYGcuWdw61UWCAQ2nyrZ-5" target="PYGcuWdw61UWCAQ2nyrZ-2">
          <mxGeometry relative="1" as="geometry" />
        </mxCell>
        <mxCell id="PYGcuWdw61UWCAQ2nyrZ-5" value="Cat" style="rounded=0;whiteSpace=wrap;html=1;" vertex="1" parent="1">
          <mxGeometry x="305" y="260" width="120" height="60" as="geometry" />
        </mxCell>
        <mxCell id="PYGcuWdw61UWCAQ2nyrZ-11" style="edgeStyle=orthogonalEdgeStyle;rounded=0;orthogonalLoop=1;jettySize=auto;html=1;exitX=0.5;exitY=0;exitDx=0;exitDy=0;endArrow=block;endFill=0;" edge="1" parent="1" source="PYGcuWdw61UWCAQ2nyrZ-6">
          <mxGeometry relative="1" as="geometry">
            <mxPoint x="229.8571428571429" y="210" as="targetPoint" />
          </mxGeometry>
        </mxCell>
        <mxCell id="PYGcuWdw61UWCAQ2nyrZ-6" value="Dog" style="rounded=0;whiteSpace=wrap;html=1;" vertex="1" parent="1">
          <mxGeometry x="170" y="260" width="120" height="60" as="geometry" />
        </mxCell>
        <mxCell id="PYGcuWdw61UWCAQ2nyrZ-12" style="edgeStyle=orthogonalEdgeStyle;rounded=0;orthogonalLoop=1;jettySize=auto;html=1;exitX=0.5;exitY=0;exitDx=0;exitDy=0;entryX=0.5;entryY=1;entryDx=0;entryDy=0;endArrow=block;endFill=0;" edge="1" parent="1" source="PYGcuWdw61UWCAQ2nyrZ-7" target="PYGcuWdw61UWCAQ2nyrZ-2">
          <mxGeometry relative="1" as="geometry" />
        </mxCell>
        <mxCell id="PYGcuWdw61UWCAQ2nyrZ-7" value="Fish" style="rounded=0;whiteSpace=wrap;html=1;" vertex="1" parent="1">
          <mxGeometry x="40" y="260" width="120" height="60" as="geometry" />
        </mxCell>
        <mxCell id="PYGcuWdw61UWCAQ2nyrZ-13" style="edgeStyle=orthogonalEdgeStyle;rounded=0;orthogonalLoop=1;jettySize=auto;html=1;exitX=0.5;exitY=0;exitDx=0;exitDy=0;entryX=0.5;entryY=1;entryDx=0;entryDy=0;endArrow=block;endFill=0;" edge="1" parent="1" source="PYGcuWdw61UWCAQ2nyrZ-8" target="PYGcuWdw61UWCAQ2nyrZ-4">
          <mxGeometry relative="1" as="geometry" />
        </mxCell>
        <mxCell id="PYGcuWdw61UWCAQ2nyrZ-8" value="Robot_Dog" style="rounded=0;whiteSpace=wrap;html=1;" vertex="1" parent="1">
          <mxGeometry x="440" y="260" width="120" height="60" as="geometry" />
        </mxCell>
        <mxCell id="PYGcuWdw61UWCAQ2nyrZ-14" style="edgeStyle=orthogonalEdgeStyle;rounded=0;orthogonalLoop=1;jettySize=auto;html=1;exitX=0.5;exitY=0;exitDx=0;exitDy=0;entryX=0.5;entryY=1;entryDx=0;entryDy=0;endArrow=block;endFill=0;" edge="1" parent="1" source="PYGcuWdw61UWCAQ2nyrZ-9" target="PYGcuWdw61UWCAQ2nyrZ-4">
          <mxGeometry relative="1" as="geometry" />
        </mxCell>
        <mxCell id="PYGcuWdw61UWCAQ2nyrZ-9" value="Robot_Fish" style="rounded=0;whiteSpace=wrap;html=1;" vertex="1" parent="1">
          <mxGeometry x="570" y="260" width="120" height="60" as="geometry" />
        </mxCell>
        <mxCell id="PYGcuWdw61UWCAQ2nyrZ-18" value="Action_Printer" style="rounded=0;whiteSpace=wrap;html=1;" vertex="1" parent="1">
          <mxGeometry x="690" y="30" width="120" height="60" as="geometry" />
        </mxCell>
        <mxCell id="PYGcuWdw61UWCAQ2nyrZ-22" style="edgeStyle=orthogonalEdgeStyle;rounded=0;orthogonalLoop=1;jettySize=auto;html=1;exitX=0.5;exitY=0;exitDx=0;exitDy=0;entryX=0.5;entryY=1;entryDx=0;entryDy=0;endArrow=block;endFill=0;" edge="1" parent="1" source="PYGcuWdw61UWCAQ2nyrZ-21" target="PYGcuWdw61UWCAQ2nyrZ-18">
          <mxGeometry relative="1" as="geometry" />
        </mxCell>
        <mxCell id="PYGcuWdw61UWCAQ2nyrZ-21" value="Test_Printer" style="rounded=0;whiteSpace=wrap;html=1;" vertex="1" parent="1">
          <mxGeometry x="690" y="150" width="120" height="60" as="geometry" />
        </mxCell>
      </root>
    </mxGraphModel>
  </diagram>
  <diagram id="Y5ssQHbaMmOkJ1e3d4jQ" name="Step_2_Components">
    <mxGraphModel dx="1185" dy="632" grid="1" gridSize="10" guides="1" tooltips="1" connect="1" arrows="1" fold="1" page="1" pageScale="1" pageWidth="850" pageHeight="1100" math="0" shadow="0">
      <root>
        <mxCell id="0" />
        <mxCell id="1" parent="0" />
        <mxCell id="Odb7NKLRBB3INW8YU59o-1" value="Component" style="rounded=0;whiteSpace=wrap;html=1;" vertex="1" parent="1">
          <mxGeometry x="360" y="130" width="120" height="60" as="geometry" />
        </mxCell>
        <mxCell id="Odb7NKLRBB3INW8YU59o-4" style="edgeStyle=orthogonalEdgeStyle;rounded=0;orthogonalLoop=1;jettySize=auto;html=1;exitX=0.5;exitY=0;exitDx=0;exitDy=0;entryX=0.5;entryY=1;entryDx=0;entryDy=0;endArrow=block;endFill=0;" edge="1" parent="1" source="Odb7NKLRBB3INW8YU59o-2" target="Odb7NKLRBB3INW8YU59o-1">
          <mxGeometry relative="1" as="geometry" />
        </mxCell>
        <mxCell id="Odb7NKLRBB3INW8YU59o-10" style="edgeStyle=orthogonalEdgeStyle;rounded=0;orthogonalLoop=1;jettySize=auto;html=1;exitX=1;exitY=0.5;exitDx=0;exitDy=0;entryX=1;entryY=0.5;entryDx=0;entryDy=0;" edge="1" parent="1" source="Odb7NKLRBB3INW8YU59o-2" target="Odb7NKLRBB3INW8YU59o-1">
          <mxGeometry relative="1" as="geometry" />
        </mxCell>
        <mxCell id="Odb7NKLRBB3INW8YU59o-2" value="Components" style="rounded=0;whiteSpace=wrap;html=1;" vertex="1" parent="1">
          <mxGeometry x="360" y="230" width="120" height="60" as="geometry" />
        </mxCell>
        <mxCell id="Odb7NKLRBB3INW8YU59o-9" style="edgeStyle=orthogonalEdgeStyle;rounded=0;orthogonalLoop=1;jettySize=auto;html=1;exitX=1;exitY=0.5;exitDx=0;exitDy=0;entryX=0;entryY=0.5;entryDx=0;entryDy=0;endArrow=block;endFill=0;" edge="1" parent="1" source="Odb7NKLRBB3INW8YU59o-5" target="Odb7NKLRBB3INW8YU59o-1">
          <mxGeometry relative="1" as="geometry" />
        </mxCell>
        <mxCell id="Odb7NKLRBB3INW8YU59o-5" value="Bark_Component" style="rounded=0;whiteSpace=wrap;html=1;" vertex="1" parent="1">
          <mxGeometry x="100" y="130" width="120" height="60" as="geometry" />
        </mxCell>
        <mxCell id="Odb7NKLRBB3INW8YU59o-11" style="edgeStyle=orthogonalEdgeStyle;rounded=0;orthogonalLoop=1;jettySize=auto;html=1;exitX=1;exitY=0.5;exitDx=0;exitDy=0;entryX=0;entryY=0.5;entryDx=0;entryDy=0;endArrow=block;endFill=0;" edge="1" parent="1" source="Odb7NKLRBB3INW8YU59o-6" target="Odb7NKLRBB3INW8YU59o-1">
          <mxGeometry relative="1" as="geometry" />
        </mxCell>
        <mxCell id="Odb7NKLRBB3INW8YU59o-6" value="Swim_Component" style="rounded=0;whiteSpace=wrap;html=1;" vertex="1" parent="1">
          <mxGeometry x="100" y="210" width="120" height="60" as="geometry" />
        </mxCell>
        <mxCell id="Odb7NKLRBB3INW8YU59o-12" style="edgeStyle=orthogonalEdgeStyle;rounded=0;orthogonalLoop=1;jettySize=auto;html=1;exitX=1;exitY=0.5;exitDx=0;exitDy=0;entryX=0;entryY=0.5;entryDx=0;entryDy=0;endArrow=block;endFill=0;" edge="1" parent="1" source="Odb7NKLRBB3INW8YU59o-7" target="Odb7NKLRBB3INW8YU59o-1">
          <mxGeometry relative="1" as="geometry" />
        </mxCell>
        <mxCell id="Odb7NKLRBB3INW8YU59o-7" value="Charge_Component" style="rounded=0;whiteSpace=wrap;html=1;" vertex="1" parent="1">
          <mxGeometry x="100" y="290" width="120" height="60" as="geometry" />
        </mxCell>
        <mxCell id="Odb7NKLRBB3INW8YU59o-13" style="edgeStyle=orthogonalEdgeStyle;rounded=0;orthogonalLoop=1;jettySize=auto;html=1;exitX=1;exitY=0.5;exitDx=0;exitDy=0;entryX=0;entryY=0.5;entryDx=0;entryDy=0;endArrow=block;endFill=0;" edge="1" parent="1" source="Odb7NKLRBB3INW8YU59o-8" target="Odb7NKLRBB3INW8YU59o-1">
          <mxGeometry relative="1" as="geometry" />
        </mxCell>
        <mxCell id="Odb7NKLRBB3INW8YU59o-8" value="Print_Component" style="rounded=0;whiteSpace=wrap;html=1;" vertex="1" parent="1">
          <mxGeometry x="100" y="370" width="120" height="60" as="geometry" />
        </mxCell>
      </root>
    </mxGraphModel>
  </diagram>
  <diagram id="rRuENO7-MZp5Jj0fOXaz" name="Step_3_Commands">
    <mxGraphModel dx="1185" dy="632" grid="1" gridSize="10" guides="1" tooltips="1" connect="1" arrows="1" fold="1" page="1" pageScale="1" pageWidth="850" pageHeight="1100" math="0" shadow="0">
      <root>
        <mxCell id="0" />
        <mxCell id="1" parent="0" />
        <mxCell id="ADz9nKlFcb1ECgwCSj8V-1" value="Component" style="rounded=0;whiteSpace=wrap;html=1;" vertex="1" parent="1">
          <mxGeometry x="360" y="180" width="120" height="60" as="geometry" />
        </mxCell>
        <mxCell id="ADz9nKlFcb1ECgwCSj8V-2" style="edgeStyle=orthogonalEdgeStyle;rounded=0;orthogonalLoop=1;jettySize=auto;html=1;exitX=0.5;exitY=0;exitDx=0;exitDy=0;entryX=0.5;entryY=1;entryDx=0;entryDy=0;endArrow=block;endFill=0;" edge="1" parent="1" source="ADz9nKlFcb1ECgwCSj8V-4" target="ADz9nKlFcb1ECgwCSj8V-1">
          <mxGeometry relative="1" as="geometry" />
        </mxCell>
        <mxCell id="ADz9nKlFcb1ECgwCSj8V-3" style="edgeStyle=orthogonalEdgeStyle;rounded=0;orthogonalLoop=1;jettySize=auto;html=1;exitX=1;exitY=0.5;exitDx=0;exitDy=0;entryX=1;entryY=0.5;entryDx=0;entryDy=0;" edge="1" parent="1" source="ADz9nKlFcb1ECgwCSj8V-4" target="ADz9nKlFcb1ECgwCSj8V-1">
          <mxGeometry relative="1" as="geometry" />
        </mxCell>
        <mxCell id="ADz9nKlFcb1ECgwCSj8V-4" value="Components" style="rounded=0;whiteSpace=wrap;html=1;" vertex="1" parent="1">
          <mxGeometry x="360" y="280" width="120" height="60" as="geometry" />
        </mxCell>
        <mxCell id="ADz9nKlFcb1ECgwCSj8V-5" style="edgeStyle=orthogonalEdgeStyle;rounded=0;orthogonalLoop=1;jettySize=auto;html=1;exitX=1;exitY=0.5;exitDx=0;exitDy=0;entryX=0;entryY=0.5;entryDx=0;entryDy=0;endArrow=block;endFill=0;" edge="1" parent="1" source="ADz9nKlFcb1ECgwCSj8V-6" target="ADz9nKlFcb1ECgwCSj8V-1">
          <mxGeometry relative="1" as="geometry" />
        </mxCell>
        <mxCell id="ADz9nKlFcb1ECgwCSj8V-29" style="edgeStyle=orthogonalEdgeStyle;rounded=0;orthogonalLoop=1;jettySize=auto;html=1;exitX=0;exitY=0.5;exitDx=0;exitDy=0;entryX=0;entryY=0.5;entryDx=0;entryDy=0;" edge="1" parent="1" source="ADz9nKlFcb1ECgwCSj8V-6" target="ADz9nKlFcb1ECgwCSj8V-26">
          <mxGeometry relative="1" as="geometry" />
        </mxCell>
        <mxCell id="ADz9nKlFcb1ECgwCSj8V-6" value="Bark_Component" style="rounded=0;whiteSpace=wrap;html=1;" vertex="1" parent="1">
          <mxGeometry x="100" y="180" width="120" height="60" as="geometry" />
        </mxCell>
        <mxCell id="ADz9nKlFcb1ECgwCSj8V-7" style="edgeStyle=orthogonalEdgeStyle;rounded=0;orthogonalLoop=1;jettySize=auto;html=1;exitX=1;exitY=0.5;exitDx=0;exitDy=0;entryX=0;entryY=0.5;entryDx=0;entryDy=0;endArrow=block;endFill=0;" edge="1" parent="1" source="ADz9nKlFcb1ECgwCSj8V-8" target="ADz9nKlFcb1ECgwCSj8V-1">
          <mxGeometry relative="1" as="geometry" />
        </mxCell>
        <mxCell id="ADz9nKlFcb1ECgwCSj8V-30" style="edgeStyle=orthogonalEdgeStyle;rounded=0;orthogonalLoop=1;jettySize=auto;html=1;exitX=0;exitY=0.5;exitDx=0;exitDy=0;" edge="1" parent="1" source="ADz9nKlFcb1ECgwCSj8V-8">
          <mxGeometry relative="1" as="geometry">
            <mxPoint x="270" y="120" as="targetPoint" />
            <Array as="points">
              <mxPoint x="80" y="290" />
              <mxPoint x="80" y="120" />
            </Array>
          </mxGeometry>
        </mxCell>
        <mxCell id="ADz9nKlFcb1ECgwCSj8V-8" value="Swim_Component" style="rounded=0;whiteSpace=wrap;html=1;" vertex="1" parent="1">
          <mxGeometry x="100" y="260" width="120" height="60" as="geometry" />
        </mxCell>
        <mxCell id="ADz9nKlFcb1ECgwCSj8V-9" style="edgeStyle=orthogonalEdgeStyle;rounded=0;orthogonalLoop=1;jettySize=auto;html=1;exitX=1;exitY=0.5;exitDx=0;exitDy=0;entryX=0;entryY=0.5;entryDx=0;entryDy=0;endArrow=block;endFill=0;" edge="1" parent="1" source="ADz9nKlFcb1ECgwCSj8V-10" target="ADz9nKlFcb1ECgwCSj8V-1">
          <mxGeometry relative="1" as="geometry" />
        </mxCell>
        <mxCell id="ADz9nKlFcb1ECgwCSj8V-34" style="edgeStyle=orthogonalEdgeStyle;rounded=0;orthogonalLoop=1;jettySize=auto;html=1;exitX=0;exitY=0.5;exitDx=0;exitDy=0;entryX=0;entryY=0.5;entryDx=0;entryDy=0;" edge="1" parent="1" source="ADz9nKlFcb1ECgwCSj8V-10" target="ADz9nKlFcb1ECgwCSj8V-26">
          <mxGeometry relative="1" as="geometry" />
        </mxCell>
        <mxCell id="ADz9nKlFcb1ECgwCSj8V-35" style="edgeStyle=orthogonalEdgeStyle;rounded=0;orthogonalLoop=1;jettySize=auto;html=1;exitX=0;exitY=0.75;exitDx=0;exitDy=0;entryX=0;entryY=0.5;entryDx=0;entryDy=0;" edge="1" parent="1" source="ADz9nKlFcb1ECgwCSj8V-10" target="ADz9nKlFcb1ECgwCSj8V-25">
          <mxGeometry relative="1" as="geometry">
            <Array as="points">
              <mxPoint x="60" y="385" />
              <mxPoint x="60" y="50" />
            </Array>
          </mxGeometry>
        </mxCell>
        <mxCell id="ADz9nKlFcb1ECgwCSj8V-10" value="Charge_Component" style="rounded=0;whiteSpace=wrap;html=1;" vertex="1" parent="1">
          <mxGeometry x="100" y="340" width="120" height="60" as="geometry" />
        </mxCell>
        <mxCell id="ADz9nKlFcb1ECgwCSj8V-11" style="edgeStyle=orthogonalEdgeStyle;rounded=0;orthogonalLoop=1;jettySize=auto;html=1;exitX=1;exitY=0.5;exitDx=0;exitDy=0;entryX=0;entryY=0.5;entryDx=0;entryDy=0;endArrow=block;endFill=0;" edge="1" parent="1" source="ADz9nKlFcb1ECgwCSj8V-12" target="ADz9nKlFcb1ECgwCSj8V-1">
          <mxGeometry relative="1" as="geometry" />
        </mxCell>
        <mxCell id="ADz9nKlFcb1ECgwCSj8V-32" style="edgeStyle=orthogonalEdgeStyle;rounded=0;orthogonalLoop=1;jettySize=auto;html=1;exitX=0;exitY=0.5;exitDx=0;exitDy=0;entryX=0;entryY=0.5;entryDx=0;entryDy=0;" edge="1" parent="1" source="ADz9nKlFcb1ECgwCSj8V-12" target="ADz9nKlFcb1ECgwCSj8V-26">
          <mxGeometry relative="1" as="geometry" />
        </mxCell>
        <mxCell id="ADz9nKlFcb1ECgwCSj8V-12" value="Print_Component" style="rounded=0;whiteSpace=wrap;html=1;" vertex="1" parent="1">
          <mxGeometry x="100" y="420" width="120" height="60" as="geometry" />
        </mxCell>
        <mxCell id="ADz9nKlFcb1ECgwCSj8V-14" style="edgeStyle=orthogonalEdgeStyle;rounded=0;orthogonalLoop=1;jettySize=auto;html=1;exitX=0;exitY=0.5;exitDx=0;exitDy=0;" edge="1" parent="1" source="ADz9nKlFcb1ECgwCSj8V-13">
          <mxGeometry relative="1" as="geometry">
            <mxPoint x="480" y="210" as="targetPoint" />
          </mxGeometry>
        </mxCell>
        <mxCell id="ADz9nKlFcb1ECgwCSj8V-36" style="edgeStyle=orthogonalEdgeStyle;rounded=0;orthogonalLoop=1;jettySize=auto;html=1;exitX=0.5;exitY=0;exitDx=0;exitDy=0;entryX=1;entryY=0.5;entryDx=0;entryDy=0;" edge="1" parent="1" source="ADz9nKlFcb1ECgwCSj8V-13" target="ADz9nKlFcb1ECgwCSj8V-24">
          <mxGeometry relative="1" as="geometry" />
        </mxCell>
        <mxCell id="ADz9nKlFcb1ECgwCSj8V-13" value="Command" style="rounded=0;whiteSpace=wrap;html=1;" vertex="1" parent="1">
          <mxGeometry x="610" y="180" width="120" height="60" as="geometry" />
        </mxCell>
        <mxCell id="ADz9nKlFcb1ECgwCSj8V-22" style="edgeStyle=orthogonalEdgeStyle;rounded=0;orthogonalLoop=1;jettySize=auto;html=1;exitX=0.5;exitY=0;exitDx=0;exitDy=0;endArrow=block;endFill=0;entryX=0.5;entryY=1;entryDx=0;entryDy=0;" edge="1" parent="1" source="ADz9nKlFcb1ECgwCSj8V-15" target="ADz9nKlFcb1ECgwCSj8V-13">
          <mxGeometry relative="1" as="geometry">
            <mxPoint x="640" y="240" as="targetPoint" />
          </mxGeometry>
        </mxCell>
        <mxCell id="ADz9nKlFcb1ECgwCSj8V-15" value="Action_Command" style="rounded=0;whiteSpace=wrap;html=1;" vertex="1" parent="1">
          <mxGeometry x="540" y="280" width="120" height="60" as="geometry" />
        </mxCell>
        <mxCell id="ADz9nKlFcb1ECgwCSj8V-21" style="edgeStyle=orthogonalEdgeStyle;rounded=0;orthogonalLoop=1;jettySize=auto;html=1;exitX=0.5;exitY=0;exitDx=0;exitDy=0;entryX=0.5;entryY=1;entryDx=0;entryDy=0;endArrow=block;endFill=0;" edge="1" parent="1" source="ADz9nKlFcb1ECgwCSj8V-16" target="ADz9nKlFcb1ECgwCSj8V-13">
          <mxGeometry relative="1" as="geometry" />
        </mxCell>
        <mxCell id="ADz9nKlFcb1ECgwCSj8V-16" value="Print_Command" style="rounded=0;whiteSpace=wrap;html=1;" vertex="1" parent="1">
          <mxGeometry x="680" y="280" width="120" height="60" as="geometry" />
        </mxCell>
        <mxCell id="ADz9nKlFcb1ECgwCSj8V-17" value="Bark_Command" style="rounded=0;whiteSpace=wrap;html=1;" vertex="1" parent="1">
          <mxGeometry x="450" y="390" width="120" height="60" as="geometry" />
        </mxCell>
        <mxCell id="ADz9nKlFcb1ECgwCSj8V-20" style="edgeStyle=orthogonalEdgeStyle;rounded=0;orthogonalLoop=1;jettySize=auto;html=1;exitX=0.5;exitY=0;exitDx=0;exitDy=0;endArrow=block;endFill=0;" edge="1" parent="1" source="ADz9nKlFcb1ECgwCSj8V-18" target="ADz9nKlFcb1ECgwCSj8V-15">
          <mxGeometry relative="1" as="geometry" />
        </mxCell>
        <mxCell id="ADz9nKlFcb1ECgwCSj8V-18" value="Charge_Command" style="rounded=0;whiteSpace=wrap;html=1;" vertex="1" parent="1">
          <mxGeometry x="610" y="390" width="120" height="60" as="geometry" />
        </mxCell>
        <mxCell id="ADz9nKlFcb1ECgwCSj8V-19" style="edgeStyle=orthogonalEdgeStyle;rounded=0;orthogonalLoop=1;jettySize=auto;html=1;exitX=0.5;exitY=0;exitDx=0;exitDy=0;endArrow=block;endFill=0;" edge="1" parent="1" source="ADz9nKlFcb1ECgwCSj8V-17" target="ADz9nKlFcb1ECgwCSj8V-15">
          <mxGeometry relative="1" as="geometry" />
        </mxCell>
        <mxCell id="ADz9nKlFcb1ECgwCSj8V-27" style="edgeStyle=orthogonalEdgeStyle;rounded=0;orthogonalLoop=1;jettySize=auto;html=1;exitX=0;exitY=0.5;exitDx=0;exitDy=0;entryX=1;entryY=0.5;entryDx=0;entryDy=0;" edge="1" parent="1" source="ADz9nKlFcb1ECgwCSj8V-24" target="ADz9nKlFcb1ECgwCSj8V-25">
          <mxGeometry relative="1" as="geometry" />
        </mxCell>
        <mxCell id="ADz9nKlFcb1ECgwCSj8V-28" style="edgeStyle=orthogonalEdgeStyle;rounded=0;orthogonalLoop=1;jettySize=auto;html=1;exitX=0;exitY=0.5;exitDx=0;exitDy=0;entryX=1;entryY=0.5;entryDx=0;entryDy=0;" edge="1" parent="1" source="ADz9nKlFcb1ECgwCSj8V-24" target="ADz9nKlFcb1ECgwCSj8V-26">
          <mxGeometry relative="1" as="geometry" />
        </mxCell>
        <mxCell id="ADz9nKlFcb1ECgwCSj8V-24" value="Mediator" style="rounded=0;whiteSpace=wrap;html=1;" vertex="1" parent="1">
          <mxGeometry x="480" y="20" width="120" height="60" as="geometry" />
        </mxCell>
        <mxCell id="ADz9nKlFcb1ECgwCSj8V-25" value="IValidator" style="rounded=0;whiteSpace=wrap;html=1;" vertex="1" parent="1">
          <mxGeometry x="270" y="20" width="120" height="60" as="geometry" />
        </mxCell>
        <mxCell id="ADz9nKlFcb1ECgwCSj8V-26" value="IHander" style="rounded=0;whiteSpace=wrap;html=1;" vertex="1" parent="1">
          <mxGeometry x="270" y="90" width="120" height="60" as="geometry" />
        </mxCell>
      </root>
    </mxGraphModel>
  </diagram>
</mxfile>
